<svg width="22" height="20" viewBox="0 0 22 20" fill="none" xmlns="http://www.w3.org/2000/svg">
<g clip-path="url(#clip0_990_5087)">
<path d="M17.4167 0.833252H4.58333C3.3682 0.834575 2.20326 1.27399 1.34403 2.0551C0.484808 2.83622 0.00145554 3.89526 0 4.99992L0 14.9999C0.00145554 16.1046 0.484808 17.1636 1.34403 17.9447C2.20326 18.7259 3.3682 19.1653 4.58333 19.1666H17.4167C18.6318 19.1653 19.7967 18.7259 20.656 17.9447C21.5152 17.1636 21.9985 16.1046 22 14.9999V4.99992C21.9985 3.89526 21.5152 2.83622 20.656 2.0551C19.7967 1.27399 18.6318 0.834575 17.4167 0.833252ZM4.58333 2.49992H17.4167C17.9656 2.5009 18.5016 2.65118 18.9557 2.93142C19.4099 3.21166 19.7614 3.60904 19.965 4.07242L12.9452 10.4549C12.4286 10.9227 11.7291 11.1853 11 11.1853C10.2709 11.1853 9.57144 10.9227 9.05483 10.4549L2.035 4.07242C2.23864 3.60904 2.59015 3.21166 3.04429 2.93142C3.49844 2.65118 4.03445 2.5009 4.58333 2.49992ZM17.4167 17.4999H4.58333C3.85399 17.4999 3.15451 17.2365 2.63879 16.7677C2.12306 16.2988 1.83333 15.663 1.83333 14.9999V6.24992L7.75867 11.6333C8.61908 12.4135 9.78474 12.8516 11 12.8516C12.2153 12.8516 13.3809 12.4135 14.2413 11.6333L20.1667 6.24992V14.9999C20.1667 15.663 19.8769 16.2988 19.3612 16.7677C18.8455 17.2365 18.146 17.4999 17.4167 17.4999Z" fill="#F68E57"/>
</g>
<defs>
<clipPath id="clip0_990_5087">
<rect width="22" height="20" fill="white"/>
</clipPath>
</defs>
</svg>
