<svg width="134" height="40" viewBox="0 0 134 40" fill="none" xmlns="http://www.w3.org/2000/svg">
<g clip-path="url(#clip0_512_10894)">
<path d="M47.7634 14.1942H51.8115L54.9084 23.8528H51.6098L51.1614 22.2431H48.0132L47.5648 23.8528H44.6665L47.7634 14.1942ZM48.564 20.1447H50.5112L49.5633 16.6307L48.564 20.1447ZM55.9076 14.1942H60.6026C61.7524 14.1942 62.601 14.4385 63.1519 14.8769C63.7028 15.3154 63.9526 15.9511 63.9526 16.731V16.7811C63.9526 17.9023 63.4017 18.585 62.2552 18.8794C62.854 18.9765 63.3537 19.2208 63.7028 19.6123C64.0518 20.0037 64.2536 20.4892 64.2536 21.1249V21.1751C64.2536 22.979 63.0558 23.8591 60.6058 23.8591H55.9589V14.2005H55.9076V14.1942ZM59.9557 21.8046C60.7564 21.8046 61.1535 21.4632 61.1535 20.7805V20.7303C61.1535 20.0977 60.7532 19.7563 59.9045 19.7563H58.9565V21.8046H59.9557ZM59.9557 17.9524C60.356 17.9524 60.6058 17.9023 60.8044 17.7582C60.9549 17.611 61.0542 17.4169 61.0542 17.1225V17.0723C61.0542 16.4867 60.7051 16.1954 59.9557 16.1954H59.0078V17.9524H59.9557ZM67.2512 16.5368H64.7532V14.1942H72.8972V16.5368H70.3992V23.8528H67.2512V16.5368ZM78.5438 21.6104C79.1425 21.6104 79.6418 21.3661 79.9912 20.9277C80.3405 20.4892 80.5418 19.8534 80.5418 19.0736V18.9765C80.5418 18.1466 80.3432 17.5609 79.9912 17.1225C79.6418 16.684 79.1425 16.4898 78.4925 16.4898C77.8932 16.4898 77.3938 16.684 77.0445 17.1225C76.6958 17.5609 76.4938 18.1967 76.4938 18.9765V19.0736C76.4938 19.9035 76.6925 20.5362 77.0445 20.9747C77.3938 21.3661 77.8932 21.6073 78.5438 21.6073V21.6104ZM78.4445 24C76.8465 24 75.5458 23.5615 74.6458 22.6345C73.6978 21.7075 73.2465 20.5362 73.2465 19.0235V18.9264C73.2465 17.4638 73.7458 16.2925 74.7452 15.3655C75.7445 14.4385 76.9938 14 78.5438 14C80.0938 14 81.3905 14.4385 82.3898 15.3185C83.3892 16.1954 83.8885 17.3667 83.8885 18.8794V18.9765C83.8885 20.4892 83.3892 21.7075 82.4412 22.6345C81.3905 23.5615 80.0938 24 78.4445 24ZM88.2858 19.4619C88.1865 20.389 88.0358 21.0216 87.8378 21.4632H90.5338V16.5368H88.4845C88.3338 18.1466 88.2858 19.1206 88.2858 19.4651V19.4619ZM83.9878 23.8528V21.5102H84.6378C85.1378 21.2659 85.4872 20.5331 85.6372 19.2177C85.7365 18.5349 85.7365 16.8751 85.7365 14.1942H93.6312V21.5133H94.8318V23.8559H83.9912L83.9878 23.8528ZM95.6778 23.8528V14.1942H98.8258V19.7563L101.974 14.1942H105.071V23.8528H101.974V18.1935L98.8258 23.8027H95.6778V23.8528ZM110.365 20.1948C110.214 21.4632 109.917 22.3902 109.417 23.0229C108.969 23.6586 108.219 24 107.268 24H106.919C106.819 24 106.72 23.953 106.618 23.953C106.515 23.953 106.467 23.9029 106.419 23.9029C106.371 23.9029 106.32 23.8528 106.269 23.8528L106.217 23.8027V21.4601L106.317 21.5102C106.416 21.5102 106.515 21.5571 106.618 21.5571C106.919 21.5571 107.169 21.363 107.367 21.0216C107.518 20.6803 107.668 20.1447 107.767 19.4119C107.867 18.4347 107.918 16.7279 107.918 14.1441H115.662V23.8027H112.466V16.4867H110.567C110.515 18.2437 110.467 19.4619 110.368 20.1948H110.365ZM117.411 14.1942H124.456V16.5368H120.559V17.9023H123.655V20.0476H120.559V21.5102H124.706V23.8528H117.462V14.1942H117.411ZM126.003 14.1942H129.952C132.649 14.1942 134 15.3154 134 17.5108V17.5609C134 18.585 133.651 19.3649 133.001 19.9035C132.351 20.4391 131.351 20.7335 130.055 20.7335H129.107V23.9029H125.958V14.1942H126.009H126.003ZM129.75 18.6351C130.599 18.6351 130.999 18.2938 130.999 17.5609V17.5108C130.999 17.1193 130.9 16.8782 130.698 16.731C130.499 16.5838 130.199 16.4867 129.75 16.4867H129.1V18.6821H129.75V18.6351Z" fill="#FEFEFE"/>
<path d="M27.4618 21.1242L24.5911 22.1835L26.0283 25.0505L30.1473 22.9947L32.8327 24.9875L36.5145 23.1169L13.0457 5.8561V34.9551L16.7275 33.0845V29.7213L21.0945 27.5396L19.7203 24.8615L16.6608 26.8543V13.0197L27.4581 21.1205L27.4618 21.1242ZM20.0352 38.0739C25.0283 38.0739 29.5842 36.0811 32.8289 32.7771C35.0736 30.5325 36.7589 27.6692 37.5701 24.4911L32.6401 26.984L29.9583 25.0542L18.4758 30.8473V34.2106L17.9757 34.4587L13.2938 36.7627C15.3533 37.6331 17.6609 38.0702 20.0352 38.0702V38.0739ZM38.0072 22.0613C38.0702 21.3761 38.1331 20.6908 38.1331 20.0055C38.1331 15.0199 36.1367 10.4713 32.8289 7.23027C29.5842 3.98926 25.0283 1.93351 20.0352 1.93351C17.4757 1.93351 14.9791 2.49283 12.7345 3.49291L38.0109 22.0613H38.0072ZM11.2344 4.23743C9.73793 5.04861 8.42673 6.04501 7.2414 7.2266C3.99667 10.4677 1.93722 15.0162 1.93722 20.0019C1.93722 24.9875 3.9337 29.5361 7.2414 32.7771C8.42673 33.9624 9.73793 34.9588 11.2344 35.7663V4.23743ZM39.8185 23.3651C39.1333 27.5396 37.0738 31.277 34.2031 34.1439C30.5843 37.7591 25.5913 40 20.0352 40C14.4791 40 9.4898 37.7553 5.86721 34.1439C2.24836 30.5287 0 25.5468 0 19.9981C0 14.4495 2.24836 9.46753 5.86721 5.85239C9.48607 2.24465 14.5421 0 20.0352 0C25.5283 0 30.5806 2.24465 34.2031 5.8561C37.822 9.47127 40.0704 14.4532 40.0704 20.0019C40.0704 21.1871 40.0074 22.3058 39.8222 23.3651H39.8185Z" fill="#F68E57"/>
<path d="M21.1571 23.8649L18.5347 25.6095V14.5195L27.4577 21.1239L24.5241 22.1832L26.4576 25.9206L23.0869 27.6022L21.1534 23.8649H21.1571Z" fill="#FEFEFE"/>
<path d="M44.6694 26.8057H50.8498V29.0176H47.5734V35.9254H44.6665V26.8057H44.6694ZM56.1105 33.8525C56.6635 33.8525 57.1248 33.6218 57.4472 33.2078C57.7694 32.7938 57.9558 32.1935 57.9558 31.4572V31.3655C57.9558 30.5819 57.7724 30.0289 57.4472 29.6149C57.1248 29.2009 56.6635 29.0146 56.0632 29.0146C55.5102 29.0146 55.0489 29.1979 54.7266 29.6149C54.4043 30.0289 54.218 30.6292 54.218 31.3655V31.4572C54.218 32.2408 54.4013 32.8381 54.7266 33.2521C55.0489 33.6218 55.5102 33.8495 56.1105 33.8495V33.8525ZM56.0188 36.1087C54.5432 36.1087 53.3426 35.6947 52.5117 34.8194C51.6364 33.9441 51.2194 32.8381 51.2194 31.4099V31.3182C51.2194 29.9373 51.6808 28.8313 52.6034 27.956C53.526 27.0807 54.6793 26.6667 56.1105 26.6667C57.5418 26.6667 58.7394 27.0807 59.662 27.9116C60.5846 28.7396 61.046 29.8455 61.046 31.2739V31.3655C61.046 32.7938 60.5846 33.9441 59.7093 34.8194C58.695 35.6947 57.4944 36.1087 56.0188 36.1087ZM65.0617 31.8239C64.97 32.6992 64.831 33.2995 64.6477 33.7135H67.1376V29.0619H65.245C65.1534 30.5819 65.106 31.5045 65.0617 31.8268V31.8239ZM61.0932 35.9224V33.7105H61.6936C62.1548 33.4799 62.4772 32.7879 62.6162 31.5459C62.7078 30.9013 62.7078 29.334 62.7078 26.8027H69.9972V33.7105H71.1032V35.9224H61.0932ZM74.2878 26.8027H78.0258L80.8852 35.9224H77.8392L77.4252 34.4025H74.5185L74.1045 35.9224H71.4285L74.2878 26.8027ZM75.0718 32.4685H76.8692L75.9938 29.1536L75.0718 32.4685Z" fill="#FEFEFE"/>
<path d="M110.42 35.5253V33.8355H106.519V32.3073L110.569 26.8281H112.656V31.9967H113.601V33.8355H112.656V35.5253H110.42ZM108.519 31.9967H110.42V29.3006L108.519 31.9967Z" fill="#F68E57"/>
<path d="M98.9971 35.5253V33.935L101.88 31.5495C102.161 31.3175 102.402 31.1105 102.6 30.9283C102.799 30.7377 102.96 30.5597 103.085 30.394C103.217 30.2283 103.312 30.071 103.37 29.9219C103.437 29.7645 103.47 29.603 103.47 29.4373C103.47 29.1474 103.387 28.9238 103.222 28.7664C103.064 28.609 102.836 28.5303 102.538 28.5303C102.14 28.5303 101.842 28.6505 101.644 28.8907C101.453 29.1309 101.358 29.4995 101.358 29.9964H99.1211C99.1211 29.4663 99.1917 28.9942 99.3324 28.5801C99.4737 28.1659 99.6844 27.818 99.9664 27.5364C100.256 27.2547 100.612 27.0394 101.035 26.8903C101.466 26.7412 101.966 26.6667 102.538 26.6667C103.076 26.6667 103.54 26.7371 103.93 26.8779C104.327 27.0104 104.658 27.2009 104.924 27.4494C105.188 27.6896 105.383 27.9795 105.508 28.3191C105.64 28.6587 105.706 29.0315 105.706 29.4373C105.706 29.7355 105.652 30.0213 105.545 30.2946C105.446 30.5679 105.3 30.833 105.11 31.0898C104.928 31.3465 104.708 31.5951 104.452 31.8353C104.194 32.0755 103.917 32.3115 103.619 32.5435L102.116 33.6865H105.83V35.5253H98.9971Z" fill="#F68E57"/>
<path d="M94.6442 35.6869C94.1555 35.6869 93.7002 35.6081 93.2775 35.4508C92.8549 35.2851 92.4869 35.0242 92.1715 34.6681C91.8569 34.3119 91.6089 33.848 91.4262 33.2765C91.2522 32.6967 91.1655 31.9968 91.1655 31.1767V30.9283C91.1655 30.1662 91.2522 29.516 91.4262 28.9776C91.6089 28.4392 91.8569 28.0002 92.1715 27.6606C92.4869 27.3127 92.8549 27.0601 93.2775 26.9027C93.7002 26.7453 94.1555 26.6667 94.6442 26.6667C95.1329 26.6667 95.5882 26.7453 96.0109 26.9027C96.4335 27.0601 96.8022 27.3127 97.1169 27.6606C97.4315 28.0002 97.6755 28.4392 97.8495 28.9776C98.0322 29.516 98.1229 30.1662 98.1229 30.9283V31.1767C98.1229 31.9968 98.0322 32.6967 97.8495 33.2765C97.6755 33.848 97.4315 34.3119 97.1169 34.6681C96.8022 35.0242 96.4335 35.2851 96.0109 35.4508C95.5882 35.6081 95.1329 35.6869 94.6442 35.6869ZM94.6442 33.848C94.8102 33.848 94.9675 33.8066 95.1162 33.7238C95.2735 33.6409 95.4062 33.5001 95.5142 33.3013C95.6302 33.0943 95.7209 32.8209 95.7875 32.4813C95.8535 32.1335 95.8869 31.6986 95.8869 31.1767V30.9283C95.8869 30.4644 95.8535 30.0793 95.7875 29.7728C95.7209 29.4663 95.6302 29.2178 95.5142 29.0273C95.4062 28.8368 95.2735 28.7043 95.1162 28.6297C94.9675 28.5469 94.8102 28.5055 94.6442 28.5055C94.4789 28.5055 94.3169 28.5469 94.1595 28.6297C94.0109 28.7043 93.8782 28.8368 93.7622 29.0273C93.6542 29.2178 93.5675 29.4663 93.5015 29.7728C93.4349 30.0793 93.4015 30.4644 93.4015 30.9283V31.1767C93.4015 31.6986 93.4349 32.1335 93.5015 32.4813C93.5675 32.8209 93.6542 33.0943 93.7622 33.3013C93.8782 33.5001 94.0109 33.6409 94.1595 33.7238C94.3169 33.8066 94.4789 33.848 94.6442 33.848Z" fill="#F68E57"/>
<path d="M83.3335 35.5253V33.935L86.2162 31.5495C86.4975 31.3175 86.7375 31.1105 86.9368 30.9283C87.1355 30.7377 87.2968 30.5597 87.4208 30.394C87.5535 30.2283 87.6488 30.071 87.7068 29.9219C87.7735 29.7645 87.8062 29.603 87.8062 29.4373C87.8062 29.1474 87.7235 28.9238 87.5575 28.7664C87.4002 28.609 87.1728 28.5303 86.8742 28.5303C86.4768 28.5303 86.1788 28.6505 85.9802 28.8907C85.7895 29.1309 85.6942 29.4995 85.6942 29.9964H83.4575C83.4575 29.4663 83.5282 28.9942 83.6688 28.5801C83.8095 28.1659 84.0208 27.818 84.3028 27.5364C84.5928 27.2547 84.9488 27.0394 85.3708 26.8903C85.8015 26.7412 86.3028 26.6667 86.8742 26.6667C87.4128 26.6667 87.8768 26.7371 88.2662 26.8779C88.6635 27.0104 88.9948 27.2009 89.2602 27.4494C89.5248 27.6896 89.7195 27.9795 89.8442 28.3191C89.9762 28.6587 90.0428 29.0315 90.0428 29.4373C90.0428 29.7355 89.9888 30.0213 89.8815 30.2946C89.7815 30.5679 89.6368 30.833 89.4462 31.0898C89.2642 31.3465 89.0448 31.5951 88.7882 31.8353C88.5308 32.0755 88.2535 32.3115 87.9555 32.5435L86.4522 33.6865H90.1668V35.5253H83.3335Z" fill="#F68E57"/>
<mask id="mask0_512_10894" style="mask-type:luminance" maskUnits="userSpaceOnUse" x="44" y="0" width="41" height="10">
<path d="M84.0772 0H44.6665V9.99147H84.0772V0Z" fill="white"/>
</mask>
<g mask="url(#mask0_512_10894)">
<path d="M57.7608 5.15495L58.9735 7.9968L58.1015 7.9984L57.8704 7.52607L56.3912 7.5284L56.161 8.00213L55.2891 8.00327L56.4891 5.15769L57.7608 5.15495ZM57.0667 5.79283L56.6679 6.7918L57.5869 6.7904L57.1855 5.79283H57.0667Z" fill="#FEFEFE"/>
<path d="M61.496 5.14909C61.8556 5.14909 62.2429 5.19984 62.2438 5.95155C62.2448 6.26559 62.1295 6.4613 61.9971 6.53281C62.2211 6.64762 62.3334 6.8582 62.3344 7.204C62.335 7.78527 62.1177 7.99213 61.5895 7.99273L59.3332 7.99707L59.3286 5.15321L61.496 5.14909ZM60.0761 6.22132L61.3995 6.21936C61.5125 6.21936 61.5862 6.16723 61.5856 6.02834C61.5856 5.88551 61.5105 5.83733 61.3989 5.83752L60.0759 5.83987L60.0761 6.22132ZM60.0786 7.30727L61.3717 7.30527C61.5002 7.30527 61.5879 7.22927 61.5879 7.0904C61.5876 6.89507 61.4987 6.85587 61.3709 6.85587L60.0778 6.8578L60.0786 7.30727Z" fill="#FEFEFE"/>
<path d="M62.8193 5.14707L65.7055 5.14258L65.7071 5.87861L64.6385 5.88037L64.6418 7.98833L63.8954 7.98953L63.8921 5.88174L62.8199 5.88311L62.8193 5.14707Z" fill="#FEFEFE"/>
<path d="M67.9395 8.02253C66.3683 8.02513 66.3379 7.92947 66.335 6.56539C66.3333 5.20516 66.3635 5.10191 67.9347 5.09899C69.4985 5.09683 69.5391 5.20007 69.5418 6.56028C69.5438 7.9162 69.5031 8.02 67.9395 8.02253ZM67.9386 7.28653C68.7931 7.28553 68.7965 7.28147 68.7951 6.56107C68.7931 5.83756 68.7905 5.83366 67.939 5.83521C67.0847 5.83619 67.0812 5.84032 67.0817 6.564C67.0832 7.28433 67.0864 7.28787 67.9386 7.28653Z" fill="#FEFEFE"/>
<path d="M72.9577 6.22412L72.2104 6.22529C72.2104 5.91145 72.1491 5.82798 71.4671 5.82917C70.7337 5.83015 70.7311 5.85405 70.7317 6.55795C70.7337 7.2658 70.7371 7.28187 71.4691 7.28087C72.1417 7.27987 72.2124 7.21993 72.2117 6.882L72.9577 6.88C72.9597 7.85527 72.9124 8.01373 71.4711 8.01633C70.0631 8.01887 69.9884 7.89527 69.9864 6.55501C69.9837 5.22281 70.0577 5.09527 71.4664 5.09313C72.8944 5.09057 72.9557 5.25769 72.9577 6.22412Z" fill="#FEFEFE"/>
<path d="M73.5151 5.1297L76.4025 5.125L76.4038 5.86104L75.3345 5.863L75.3385 7.971L74.5918 7.972L74.5878 5.86398L73.5165 5.86535L73.5151 5.1297Z" fill="#FEFEFE"/>
<path d="M79.2899 5.11979L80.5019 7.96187L79.6312 7.9632L79.3985 7.49033L77.9199 7.49267L77.6899 7.9662L76.8179 7.96753L78.0179 5.12194L79.2899 5.11979ZM78.5952 5.75767L78.1965 6.7564L79.1159 6.75507L78.7145 5.75689L78.5952 5.75767Z" fill="#FEFEFE"/>
<path d="M80.9316 5.11733L83.8176 5.11263L83.8196 5.84848L82.751 5.85043L82.7543 7.95847L82.0076 7.9594L82.005 5.852L80.9323 5.85337L80.9316 5.11733Z" fill="#FEFEFE"/>
<path d="M55.4504 9.98433L55.2173 9.98473L55.6641 8.79353L55.8822 8.793L56.3333 9.98273L56.1002 9.98293L56.0135 9.73333L55.5367 9.73373L55.4504 9.98433ZM55.9549 9.55333L55.7741 9.02453L55.5939 9.55353L55.9549 9.55333Z" fill="#FEFEFE"/>
<path d="M56.823 9.98193H56.606L56.604 8.7922L56.8211 8.7918L56.8225 9.26787L57.3532 9.26747L57.3528 8.7912L57.5709 8.791L57.5722 9.9808L57.3542 9.9812L57.3532 9.44733L56.8225 9.44847L56.823 9.98193Z" fill="#FEFEFE"/>
<path d="M58.0783 9.9804L57.8447 9.9806L58.292 8.78927L58.5106 8.78907L58.9614 9.979H58.7283L58.641 9.72927L58.1651 9.73L58.0783 9.9804ZM58.5833 9.5494L58.402 9.021L58.2222 9.5496L58.5833 9.5494Z" fill="#FEFEFE"/>
<path d="M59.0742 9.7974C59.3344 9.84287 59.3413 9.49573 59.3403 9.25473L59.3399 8.78693L60.154 8.78513L60.157 9.97587L59.9395 9.97627L59.9376 8.9658L59.5576 8.9664L59.5582 9.3184C59.5586 9.61793 59.5295 10.0499 59.0744 9.97767L59.0742 9.7974Z" fill="#FEFEFE"/>
<path d="M61.3626 8.78427L61.5759 8.78387L61.5773 9.9742L61.3593 9.9744L61.3579 9.104L60.7928 9.9756L60.5801 9.97593L60.5781 8.7852L60.7957 8.7846L60.7971 9.65587L61.3626 8.78427Z" fill="#FEFEFE"/>
<path d="M61.876 8.96373V8.78347L62.8428 8.78193L62.8432 8.96233L62.4684 8.96313L62.4704 9.97267L62.2524 9.97347L62.2504 8.96313L61.876 8.96373Z" fill="#FEFEFE"/>
<path d="M63.9286 8.78013L64.142 8.77993L64.144 9.96973H63.9262L63.925 9.09987L63.3593 9.97127H63.147L63.144 8.78153L63.3621 8.78113L63.3634 9.65173L63.9286 8.78013Z" fill="#FEFEFE"/>
<path d="M64.7376 8.77893L64.7386 9.1002C64.7386 9.214 64.7454 9.29927 64.9893 9.29867C65.0841 9.29827 65.1878 9.28807 65.2054 9.28613L65.2039 8.77773L65.4218 8.77733L65.4239 9.96807L65.2065 9.96847L65.2054 9.46693C65.1384 9.47187 65.0381 9.47873 64.9621 9.47873C64.7068 9.47947 64.521 9.4166 64.521 9.1494L64.52 8.77893H64.7376Z" fill="#FEFEFE"/>
<path d="M66.6706 9.2662V9.44607L66.0648 9.44687L66.0653 9.78753L66.7597 9.78633L66.7601 9.9664L65.8476 9.96773L65.8457 8.7772L66.7394 8.77607L66.74 8.95607L66.0638 8.95687L66.0644 9.2662H66.6706Z" fill="#FEFEFE"/>
<path d="M68.1052 9.5572C68.0896 9.7374 67.9941 9.99973 67.591 10.0001C67.4988 10.0001 67.0002 9.99253 66.999 9.39067C66.9987 8.90067 67.281 8.73907 67.5772 8.73827C67.9854 8.73733 68.0776 8.98747 68.0885 9.15713L67.8722 9.15793C67.8578 9.0588 67.7995 8.91833 67.5771 8.91873C67.3116 8.91873 67.2314 9.1352 67.232 9.38167C67.2324 9.6606 67.3861 9.82007 67.5998 9.82007C67.7982 9.81913 67.8822 9.68513 67.8892 9.5576L68.1052 9.5572Z" fill="#FEFEFE"/>
<path d="M69.1863 8.77107L69.4783 8.7708L68.9863 9.26453L69.513 9.9604L69.2203 9.9614L68.827 9.41127L68.667 9.56627V9.9622L68.4487 9.96273L68.4473 8.7724L68.6654 8.772L68.6663 9.30747L69.1863 8.77107Z" fill="#FEFEFE"/>
<path d="M70.299 8.73373C70.403 8.73333 70.883 8.74607 70.8836 9.3632C70.8843 9.98073 70.405 9.9952 70.3003 9.9954C70.197 9.9956 69.7163 9.98287 69.7163 9.36513C69.715 8.7482 70.1956 8.73373 70.299 8.73373ZM70.301 9.81513C70.5956 9.81453 70.651 9.54753 70.6503 9.3638C70.6503 9.1804 70.5936 8.9134 70.299 8.9136C70.0043 8.91433 69.9496 9.1816 69.9496 9.36493C69.9496 9.54873 70.0063 9.81533 70.301 9.81513Z" fill="#FEFEFE"/>
<path d="M72.0633 9.25713V9.43693L71.4586 9.43813V9.7782L72.1533 9.77707V9.95727L71.2413 9.95867L71.2393 8.76853L72.1326 8.76693L72.1333 8.947L71.4566 8.94813L71.4586 9.25787L72.0633 9.25713Z" fill="#FEFEFE"/>
<path d="M73.074 9.95507L72.8413 9.95567L73.2886 8.76453L73.506 8.76433L73.958 9.95367L73.724 9.95407L73.638 9.70453L73.1613 9.70467L73.074 9.95507ZM73.5793 9.52427L73.398 8.99587L73.2186 9.52507L73.5793 9.52427Z" fill="#FEFEFE"/>
<path d="M74.448 9.95347L74.2294 9.95373L74.228 8.76373L75.0074 8.7624V8.9426L74.446 8.9434L74.448 9.95347Z" fill="#FEFEFE"/>
<path d="M76.1316 9.24933L76.1329 9.4294L75.527 9.43033V9.77087L76.2223 9.76967V9.94953L75.3103 9.95107L75.3076 8.76113L76.2016 8.75973V8.9396L75.5256 8.9408L75.527 9.25033L76.1316 9.24933Z" fill="#FEFEFE"/>
<path d="M76.7483 9.94973L76.5303 9.94993L76.5283 8.7594L76.7457 8.7588L76.7463 9.23527L77.2783 9.23407L77.277 8.7578H77.495L77.497 9.948L77.279 9.9486L77.2783 9.41433L76.747 9.41527L76.7483 9.94973Z" fill="#FEFEFE"/>
<path d="M77.7964 8.9366V8.7564L78.7631 8.7552V8.93507L78.3884 8.93627L78.3897 9.94613L78.1724 9.94633L78.1711 8.9364L77.7964 8.9366Z" fill="#FEFEFE"/>
<path d="M80.0899 9.53727C80.0732 9.71813 79.9786 9.9802 79.5759 9.9804C79.4839 9.9806 78.9852 9.97313 78.9839 9.37093C78.9832 8.88133 79.2652 8.71933 79.5619 8.71873C79.9699 8.718 80.0626 8.96773 80.0732 9.1384H79.8566C79.8432 9.03987 79.7846 8.8984 79.5626 8.8992C79.2966 8.8994 79.2159 9.11567 79.2172 9.36213C79.2179 9.64107 79.3712 9.8008 79.5859 9.8008C79.7832 9.8002 79.8679 9.6654 79.8746 9.53807L80.0899 9.53727Z" fill="#FEFEFE"/>
<path d="M80.3105 8.93353V8.75293L81.2772 8.75193L81.2779 8.932L80.9032 8.9324L80.9059 9.94233L80.6865 9.94267L80.6859 8.9326L80.3105 8.93353Z" fill="#FEFEFE"/>
<path d="M82.1396 8.75C82.443 8.7498 82.503 8.91947 82.503 9.05013C82.503 9.1818 82.4216 9.2856 82.3063 9.3064V9.30933C82.405 9.3262 82.553 9.39373 82.553 9.60673C82.5543 9.90747 82.297 9.94033 82.1183 9.94053L81.5803 9.94173L81.5776 8.751L82.1396 8.75ZM81.797 9.23367L82.0843 9.23333C82.205 9.23293 82.2783 9.19567 82.2783 9.09187C82.2776 8.93373 82.125 8.93 82.0783 8.93L81.7963 8.9308L81.797 9.23367ZM81.797 9.76067L82.0956 9.76053C82.2283 9.75953 82.3283 9.7274 82.3283 9.5828C82.3283 9.42293 82.1903 9.41333 82.0996 9.41353L81.797 9.41393V9.76067Z" fill="#FEFEFE"/>
<path d="M83.4445 8.71227C83.5485 8.71227 84.0285 8.7252 84.0292 9.34193C84.0305 9.9596 83.5505 9.97413 83.4471 9.97413C83.3425 9.97413 82.8625 9.961 82.8618 9.34467C82.8612 8.72693 83.3405 8.71267 83.4445 8.71227ZM83.4465 9.79407C83.7405 9.79307 83.7965 9.52647 83.7965 9.34267C83.7958 9.15913 83.7392 8.89193 83.4452 8.89267C83.1505 8.89307 83.0951 9.16007 83.0951 9.34407C83.0951 9.52767 83.1518 9.79407 83.4465 9.79407Z" fill="#FEFEFE"/>
<path d="M55.5919 3.66661L53.7617 0.509101C53.627 0.375098 53.4637 0.313386 53.3033 0.334936C53.1435 0.35629 53.0029 0.458752 52.9072 0.623905L51.1053 3.75907C51.0131 3.91952 50.9953 4.06645 51.0579 4.17303C51.1191 4.27921 51.2561 4.3372 51.4418 4.33699L55.0591 4.32858C55.2507 4.32858 55.4091 4.25688 55.5075 4.12836C55.6054 4.00004 55.6325 3.82841 55.5919 3.66661Z" fill="#FEFEFE"/>
<path d="M47.5565 0.380699L47.52 0.587581C47.524 0.684559 47.5549 0.782319 47.6098 0.877919L49.4258 4.00407C49.5213 4.16785 49.6435 4.25817 49.77 4.25817C49.8964 4.25757 50.0186 4.16708 50.1127 4.0029L51.9146 0.868126C51.9766 0.760373 52.0072 0.646159 52.0022 0.538406L51.9654 0.371295C51.9058 0.226125 51.773 0.117198 51.5926 0.0643024C51.5634 0.0601881 47.9566 0.0684167 47.9566 0.0684167C47.7484 0.125818 47.6161 0.235136 47.5565 0.380699ZM49.7694 4.05971C49.7315 4.05932 49.6641 4.01897 49.5982 3.90493L47.7818 0.778006C47.7435 0.712179 47.7216 0.643219 47.7198 0.579549L47.7396 0.456515C47.7761 0.367573 47.8637 0.298807 47.9849 0.262957C47.9862 0.266483 51.564 0.258449 51.564 0.258449C51.658 0.289991 51.7452 0.358756 51.782 0.447701L51.8034 0.546244C51.8064 0.616771 51.7856 0.694353 51.7419 0.769579L49.9404 3.90377C49.8741 4.01857 49.8066 4.05932 49.7694 4.05971Z" fill="#FEFEFE"/>
<path d="M46.5174 0.866779C46.4999 0.889112 44.7043 4.01213 44.7043 4.01213C44.6937 4.03897 44.6733 4.22038 44.6733 4.22038C44.6782 4.33068 44.7135 4.43157 44.7765 4.51308C44.8769 4.64395 45.0396 4.71603 45.2331 4.71525L48.8515 4.70702C49.0415 4.70663 49.1815 4.64571 49.2436 4.53619L49.2799 4.37436L49.1936 4.11166L47.3772 0.986093C47.2807 0.818586 47.1364 0.714559 46.9725 0.692613C46.816 0.672239 46.6551 0.733952 46.5174 0.866779ZM46.6727 0.987266C46.7482 0.919479 46.8515 0.877552 46.947 0.889899C47.0483 0.903026 47.1403 0.972573 47.2058 1.08561L49.0222 4.21176L49.0815 4.38299L49.0707 4.43764C49.0523 4.47076 48.9834 4.50856 48.8511 4.50897L45.2331 4.51679C45.1021 4.51719 44.9957 4.47311 44.9341 4.39259C44.8959 4.34341 44.8751 4.28249 44.8721 4.21255L44.8882 4.08481C44.8929 4.08461 46.6727 0.987266 46.6727 0.987266Z" fill="#FEFEFE"/>
<path d="M44.8186 5.29382C44.7462 5.38687 44.7119 5.5054 44.7168 5.63371L44.7372 5.76693C44.749 5.79378 46.0224 7.9882 46.0224 7.9882L46.5589 8.91053C46.714 9.06493 46.876 9.12567 47.0314 9.10467C47.1961 9.08233 47.3387 8.97793 47.4361 8.8098L49.2371 5.67585C49.3306 5.51402 49.348 5.35906 49.2861 5.2511C49.2216 5.14119 49.0826 5.08125 48.8926 5.08204L45.2746 5.09007C45.0807 5.09046 44.919 5.16256 44.8186 5.29382ZM44.9156 5.62607C44.9127 5.54399 44.9334 5.47091 44.9766 5.4147C45.0382 5.33379 45.1444 5.28892 45.275 5.28853L48.8936 5.28069C49.0263 5.28029 49.0945 5.3183 49.114 5.35101C49.1192 5.36101 49.1228 5.37512 49.1241 5.39315C49.1255 5.43525 49.111 5.49776 49.0655 5.57612L47.263 8.71067C47.1981 8.82433 47.1066 8.89427 47.0052 8.9078C46.9106 8.92073 46.8069 8.8782 46.7134 8.78947C46.7124 8.78087 46.1944 7.88787 46.1944 7.88787L44.9203 5.69425C44.9311 5.7209 44.9156 5.62607 44.9156 5.62607Z" fill="#FEFEFE"/>
<path d="M49.4828 5.76653L47.6809 8.90053C47.619 9.00827 47.5884 9.12247 47.5927 9.2298L47.6296 9.39713C47.6897 9.54273 47.8224 9.65167 48.0042 9.70473C48.0319 9.70847 51.6382 9.7004 51.6382 9.7004C51.8471 9.6424 51.9794 9.53293 52.039 9.38793L52.0755 9.18167C52.0716 9.08367 52.041 8.98653 51.9853 8.89113L50.1698 5.76476C50.0744 5.60059 49.9522 5.51107 49.8258 5.51107C49.6991 5.51087 49.5774 5.60138 49.4828 5.76653ZM48.0315 9.5096C47.937 9.47807 47.8503 9.40927 47.8134 9.32073L47.7917 9.2218C47.7893 9.15187 47.8095 9.07487 47.8536 8.99947L49.6556 5.86508C49.7214 5.75007 49.7889 5.70933 49.8262 5.70933C49.864 5.70933 49.9308 5.74947 49.9977 5.86429L51.8138 8.9906C51.852 9.05647 51.8739 9.1256 51.8763 9.18907L51.8555 9.31253C51.8186 9.40007 51.732 9.46887 51.6098 9.50533C51.609 9.502 48.0315 9.5096 48.0315 9.5096Z" fill="#FEFEFE"/>
<path d="M50.3326 5.21903C50.2691 5.32914 50.2876 5.4796 50.3827 5.64377L52.1981 8.77073C52.2956 8.9382 52.4395 9.04207 52.6032 9.0634C52.7592 9.0832 52.9202 9.02187 53.0579 8.8906C53.0748 8.86807 54.8714 5.74349 54.8714 5.74349C54.8806 5.71723 54.9024 5.53563 54.9024 5.53563C54.898 5.42572 54.8626 5.32405 54.7992 5.24255C54.6988 5.11129 54.5361 5.03998 54.3422 5.04037L50.7242 5.04801C50.5348 5.04938 50.3952 5.10953 50.3326 5.21903ZM50.5542 5.54386C50.5124 5.47215 50.4966 5.41455 50.4947 5.37341C50.4937 5.34873 50.498 5.33032 50.5042 5.31778C50.5232 5.28564 50.5924 5.24763 50.7242 5.24706L54.3422 5.23883C54.4735 5.23883 54.58 5.28329 54.6426 5.36342C54.6804 5.41338 54.7008 5.47372 54.7041 5.54386L54.6881 5.6712C54.6828 5.67218 52.903 8.76913 52.903 8.76913C52.8273 8.83593 52.7236 8.87867 52.6283 8.86653C52.5269 8.8538 52.4354 8.78407 52.37 8.6712L50.5542 5.54386Z" fill="#FEFEFE"/>
<mask id="mask1_512_10894" style="mask-type:luminance" maskUnits="userSpaceOnUse" x="44" y="0" width="41" height="10">
<path d="M84.0772 0H44.6665V9.99147H84.0772V0Z" fill="white"/>
</mask>
<g mask="url(#mask1_512_10894)">
<path d="M57.7608 5.15495L58.9735 7.9968L58.1015 7.9984L57.8703 7.52607L56.3912 7.5284L56.161 8.00213L55.2891 8.00327L56.489 5.15769L57.7608 5.15495ZM57.0667 5.79283L56.6679 6.7918L57.5869 6.7904L57.1855 5.79283H57.0667Z" fill="#FEFEFE"/>
<path d="M61.496 5.14844C61.8556 5.14844 62.2429 5.19919 62.2438 5.9509C62.2448 6.26495 62.1295 6.46065 61.9971 6.53216C62.2211 6.64697 62.3334 6.8576 62.3344 7.20333C62.335 7.7846 62.1177 7.99153 61.5895 7.99207L59.3331 7.9964L59.3286 5.15257L61.496 5.14844ZM60.0761 6.22067L61.3995 6.21871C61.5125 6.21871 61.5862 6.16659 61.5856 6.02769C61.5856 5.88487 61.5105 5.83668 61.3989 5.83687L60.0759 5.83922L60.0761 6.22067ZM60.0786 7.3066L61.3717 7.3046C61.5001 7.3046 61.5879 7.2286 61.5879 7.08973C61.5875 6.8944 61.4987 6.8552 61.3709 6.8552L60.0778 6.8572L60.0786 7.3066Z" fill="#FEFEFE"/>
<path d="M62.8198 5.14643L65.706 5.14193L65.7077 5.87797L64.639 5.87972L64.6423 7.98773L63.8959 7.98887L63.8926 5.88109L62.8204 5.88246L62.8198 5.14643Z" fill="#FEFEFE"/>
<path d="M67.9396 8.02253C66.3683 8.02513 66.338 7.92947 66.335 6.56539C66.3333 5.20516 66.3635 5.10191 67.9347 5.09899C69.4989 5.09683 69.5396 5.20007 69.5416 6.56028C69.5443 7.9162 69.5029 8.02 67.9396 8.02253ZM67.9387 7.28653C68.7929 7.28553 68.7963 7.28147 68.7949 6.56107C68.7936 5.83756 68.7909 5.83366 67.939 5.83521C67.0847 5.83619 67.0812 5.84032 67.0818 6.564C67.0833 7.28433 67.0864 7.28787 67.9387 7.28653Z" fill="#FEFEFE"/>
<path d="M72.9577 6.22347L72.2104 6.22464C72.2104 5.91079 72.1491 5.82733 71.4677 5.82851C70.7344 5.82949 70.7311 5.8534 70.7324 6.5573C70.7337 7.26513 70.7371 7.2812 71.4697 7.2802C72.1417 7.27927 72.2131 7.21927 72.2124 6.88133L72.9584 6.8794C72.9597 7.8546 72.9131 8.01313 71.4711 8.01567C70.0631 8.0182 69.9884 7.8946 69.9864 6.55435C69.9837 5.22216 70.0584 5.09462 71.4671 5.09247C72.8951 5.08992 72.9564 5.25704 72.9577 6.22347Z" fill="#FEFEFE"/>
<path d="M73.5151 5.1297L76.4025 5.125L76.4038 5.86104L75.3345 5.863L75.3385 7.971L74.5918 7.972L74.5878 5.86398L73.5165 5.86535L73.5151 5.1297Z" fill="#FEFEFE"/>
<path d="M79.2897 5.11979L80.5017 7.96187L79.631 7.9632L79.3984 7.49033L77.9204 7.49267L77.6897 7.9662L76.8184 7.96753L78.0177 5.12194L79.2897 5.11979ZM78.5957 5.75767L78.1964 6.7564L79.1157 6.75507L78.7144 5.75689L78.5957 5.75767Z" fill="#FEFEFE"/>
<path d="M80.9316 5.11668L83.8183 5.11198L83.8203 5.84783L82.751 5.84977L82.7543 7.9578L82.0083 7.9588L82.005 5.85135L80.9323 5.85271L80.9316 5.11668Z" fill="#FEFEFE"/>
<path d="M55.4509 9.98433L55.2178 9.98473L55.6646 8.79353L55.8826 8.793L56.3338 9.98273L56.1007 9.98293L56.014 9.73333L55.5372 9.73373L55.4509 9.98433ZM55.9554 9.55333L55.7746 9.02453L55.5944 9.55353L55.9554 9.55333Z" fill="#FEFEFE"/>
<path d="M56.8236 9.98133H56.6065L56.6045 8.79153L56.8216 8.79113L56.823 9.2672L57.3537 9.2668L57.3533 8.7906L57.5714 8.79033L57.5727 9.98013L57.3547 9.98053L57.3537 9.44667L56.823 9.44787L56.8236 9.98133Z" fill="#FEFEFE"/>
<path d="M58.0783 9.97973L57.8447 9.97993L58.2919 8.7886L58.5106 8.7884L58.9614 9.9784H58.7283L58.641 9.7286L58.1651 9.72933L58.0783 9.97973ZM58.5833 9.54873L58.4019 9.02033L58.2222 9.54893L58.5833 9.54873Z" fill="#FEFEFE"/>
<path d="M59.0742 9.7968C59.3344 9.8422 59.3413 9.49507 59.3403 9.25413L59.3399 8.78627L60.154 8.78453L60.157 9.97527L59.9395 9.97567L59.9376 8.96513L59.5576 8.96573L59.5582 9.3178C59.5585 9.61733 59.5295 10.0493 59.0744 9.977L59.0742 9.7968Z" fill="#FEFEFE"/>
<path d="M61.3631 8.7836L61.5764 8.7832L61.5778 9.97353L61.3597 9.97373L61.3584 9.10333L60.7934 9.97493L60.5806 9.97533L60.5786 8.7846L60.7963 8.784L60.7976 9.6552L61.3631 8.7836Z" fill="#FEFEFE"/>
<path d="M61.8765 8.96307V8.7828L62.8433 8.78127L62.8437 8.96167L62.469 8.96247L62.471 9.972L62.2529 9.9728L62.251 8.96247L61.8765 8.96307Z" fill="#FEFEFE"/>
<path d="M63.9286 8.78013L64.142 8.77993L64.144 9.96973H63.9262L63.925 9.09987L63.3593 9.97127H63.147L63.144 8.78153L63.3621 8.78113L63.3634 9.65173L63.9286 8.78013Z" fill="#FEFEFE"/>
<path d="M64.738 8.77827L64.739 9.09953C64.739 9.2134 64.7458 9.2986 64.9897 9.298C65.0846 9.2976 65.1882 9.28747 65.2058 9.28547L65.2044 8.77707L65.4223 8.77667L65.4243 9.96747L65.2069 9.9678L65.2058 9.46633C65.1388 9.4712 65.0386 9.47807 64.9625 9.47807C64.7072 9.4788 64.5214 9.41593 64.5214 9.14873L64.5205 8.77827H64.738Z" fill="#FEFEFE"/>
<path d="M66.6705 9.26553V9.4454L66.0648 9.4462L66.0653 9.78687L66.7597 9.78567L66.7601 9.96573L65.8475 9.96713L65.8457 8.77653L66.7394 8.7754L66.7399 8.9554L66.0638 8.9562L66.0644 9.26553H66.6705Z" fill="#FEFEFE"/>
<path d="M68.1056 9.55653C68.09 9.7368 67.9946 9.99907 67.5914 9.99947C67.4993 9.99947 67.0006 9.99187 66.9995 9.39C66.9992 8.9 67.2815 8.7384 67.5777 8.7376C67.9859 8.73667 68.078 8.9868 68.089 9.15647L67.8726 9.15727C67.8582 9.05813 67.8 8.91767 67.5775 8.91807C67.312 8.91807 67.2319 9.13453 67.2324 9.381C67.2328 9.66 67.3866 9.81947 67.6003 9.81947C67.7986 9.81847 67.8826 9.68447 67.8897 9.55693L68.1056 9.55653Z" fill="#FEFEFE"/>
<path d="M69.1865 8.77107L69.4792 8.7708L68.9865 9.26453L69.5138 9.9604L69.2212 9.9614L68.8272 9.41127L68.6672 9.56627L68.6678 9.9622L68.4492 9.96273L68.4478 8.7724L68.6659 8.772L68.6665 9.30747L69.1865 8.77107Z" fill="#FEFEFE"/>
<path d="M70.3 8.73307C70.404 8.73267 70.8833 8.7454 70.8846 9.36253C70.8853 9.98007 70.4053 9.99453 70.3013 9.99473C70.1973 9.99493 69.7173 9.9822 69.7173 9.36447C69.716 8.7476 70.1966 8.73307 70.3 8.73307ZM70.3013 9.81453C70.596 9.81393 70.652 9.54687 70.6513 9.36313C70.6506 9.17973 70.594 8.91273 70.3 8.91293C70.0053 8.91373 69.95 9.18093 69.95 9.36433C69.95 9.54807 70.0073 9.81467 70.3013 9.81453Z" fill="#FEFEFE"/>
<path d="M72.0637 9.25647V9.43627L71.4584 9.43747V9.7776L72.1531 9.7764V9.9566L71.2417 9.958L71.2397 8.76787L72.1331 8.76627L72.1337 8.94633L71.4571 8.94747L71.4584 9.2572L72.0637 9.25647Z" fill="#FEFEFE"/>
<path d="M73.0746 9.9544L72.8413 9.955L73.2886 8.76387L73.5066 8.76367L73.958 9.95307L73.724 9.9534L73.6386 9.70387L73.1613 9.70407L73.0746 9.9544ZM73.5793 9.5236L73.398 8.9952L73.2186 9.5244L73.5793 9.5236Z" fill="#FEFEFE"/>
<path d="M74.448 9.95287L74.23 9.95307L74.228 8.76307L75.0074 8.76173L75.008 8.94193L74.446 8.94273L74.448 9.95287Z" fill="#FEFEFE"/>
<path d="M76.1326 9.24867L76.1333 9.42873L75.5273 9.42973L75.5279 9.7702L76.2233 9.769V9.94887L75.3106 9.95047L75.3086 8.76047L76.2019 8.75913V8.93893L75.5259 8.94013L75.5279 9.24967L76.1326 9.24867Z" fill="#FEFEFE"/>
<path d="M76.7493 9.94907L76.5313 9.94927L76.5293 8.75873L76.7466 8.75813L76.7473 9.2346L77.2786 9.2334L77.2773 8.75713H77.4953L77.4973 9.94733L77.2793 9.94793L77.2786 9.41367L76.748 9.41467L76.7493 9.94907Z" fill="#FEFEFE"/>
<path d="M77.7974 8.9366V8.7564L78.7634 8.7552V8.93507L78.3894 8.93627L78.3907 9.94613L78.1734 9.94633L78.172 8.9364L77.7974 8.9366Z" fill="#FEFEFE"/>
<path d="M80.0904 9.5366C80.073 9.71747 79.979 9.9796 79.5764 9.97973C79.4837 9.97993 78.985 9.97253 78.9844 9.37027C78.983 8.88073 79.265 8.71867 79.5624 8.71813C79.9704 8.71733 80.0624 8.96713 80.073 9.13773H79.8564C79.8431 9.0392 79.785 8.89773 79.5624 8.89853C79.297 8.89873 79.2164 9.115 79.2177 9.36147C79.2177 9.64047 79.3717 9.80013 79.5857 9.80013C79.7837 9.79953 79.8677 9.66473 79.8744 9.5374L80.0904 9.5366Z" fill="#FEFEFE"/>
<path d="M80.3112 8.93293L80.3105 8.75227L81.2772 8.75133L81.2779 8.93133L80.9032 8.93173L80.9059 9.94167L80.6872 9.94207L80.6859 8.93193L80.3112 8.93293Z" fill="#FEFEFE"/>
<path d="M82.1406 8.74933C82.4433 8.74913 82.5039 8.9188 82.5039 9.04947C82.5039 9.18113 82.4226 9.28493 82.3066 9.30573V9.30867C82.4059 9.32553 82.5533 9.39313 82.5533 9.60607C82.5553 9.9068 82.2973 9.93973 82.1186 9.93987L81.5813 9.94107L81.5786 8.75033L82.1406 8.74933ZM81.7973 9.23307L82.0853 9.23267C82.2059 9.23227 82.2793 9.19507 82.2793 9.0912C82.2779 8.93307 82.1253 8.9294 82.0793 8.9294L81.7973 8.9302V9.23307ZM81.7979 9.76007L82.0966 9.75987C82.2293 9.75887 82.3293 9.72673 82.3293 9.58213C82.3293 9.42227 82.1906 9.41267 82.1006 9.41287L81.7979 9.41327V9.76007Z" fill="#FEFEFE"/>
<path d="M83.4445 8.71227C83.5492 8.71227 84.0285 8.7252 84.0298 9.34193C84.0305 9.9596 83.5511 9.97413 83.4471 9.97413C83.3431 9.97413 82.8625 9.961 82.8618 9.34467C82.8612 8.72693 83.3412 8.71267 83.4445 8.71227ZM83.4471 9.79407C83.7411 9.79307 83.7965 9.52647 83.7965 9.34267C83.7958 9.15913 83.7398 8.89193 83.4452 8.89267C83.1505 8.89307 83.0958 9.16007 83.0958 9.34407C83.0958 9.52767 83.1518 9.79407 83.4471 9.79407Z" fill="#FEFEFE"/>
<path d="M55.5924 3.66661L53.7623 0.509101C53.6275 0.375098 53.4642 0.313386 53.3038 0.334936C53.144 0.35629 53.0034 0.458752 52.9077 0.623905L51.1058 3.75907C51.0136 3.91952 50.9958 4.06645 51.0584 4.17303C51.1195 4.27921 51.2566 4.3372 51.4422 4.33699L55.0596 4.32858C55.2512 4.32858 55.4096 4.25688 55.508 4.12836C55.6059 4.00004 55.633 3.82841 55.5924 3.66661Z" fill="#FEFEFE"/>
<path d="M47.5565 0.380048L47.52 0.586931C47.524 0.683907 47.555 0.781667 47.6098 0.877267L49.4259 4.00342C49.5213 4.16721 49.6435 4.25751 49.77 4.25751C49.8965 4.25693 50.0186 4.16643 50.1127 4.00225L51.9146 0.867473C51.9766 0.759727 52.0072 0.645508 52.0023 0.537756L51.9654 0.370645C51.9058 0.225475 51.7731 0.116548 51.5927 0.063652C51.5635 0.0595378 47.9567 0.067766 47.9567 0.067766C47.7485 0.125168 47.6161 0.234485 47.5565 0.380048ZM49.7694 4.05905C49.7316 4.05867 49.6641 4.01831 49.5982 3.90428L47.7818 0.777353C47.7436 0.711527 47.7216 0.642568 47.7198 0.578899L47.7396 0.455865C47.7761 0.366922 47.8637 0.298157 47.9849 0.262306C47.9863 0.265833 51.564 0.257799 51.564 0.257799C51.658 0.289341 51.7452 0.358106 51.7821 0.44705L51.8035 0.545593C51.8064 0.61612 51.7856 0.6937 51.7419 0.768933L49.9404 3.90311C49.8741 4.01793 49.8066 4.05867 49.7694 4.05905Z" fill="#FEFEFE"/>
<path d="M46.5173 0.866779C46.4999 0.889112 44.7043 4.01213 44.7043 4.01213C44.6937 4.03897 44.6733 4.22038 44.6733 4.22038C44.6782 4.33068 44.7135 4.43157 44.7765 4.51308C44.8768 4.64395 45.0396 4.71603 45.2331 4.71525L48.8514 4.70702C49.0414 4.70663 49.1814 4.64571 49.2436 4.53619L49.2799 4.37436L49.1936 4.11166L47.3771 0.986093C47.2807 0.818586 47.1364 0.714559 46.9725 0.692613C46.816 0.672239 46.655 0.733952 46.5173 0.866779ZM46.6727 0.987266C46.7481 0.919479 46.8515 0.877552 46.947 0.889899C47.0483 0.903026 47.1403 0.972573 47.2058 1.08561L49.0222 4.21176L49.0814 4.38299L49.0707 4.43764C49.0522 4.47076 48.9834 4.50856 48.8511 4.50897L45.2331 4.51679C45.1021 4.51719 44.9957 4.47311 44.9341 4.39259C44.8959 4.34341 44.8751 4.28249 44.8721 4.21255L44.8882 4.08481C44.8929 4.08461 46.6727 0.987266 46.6727 0.987266Z" fill="#FEFEFE"/>
<path d="M44.819 5.29317C44.7466 5.38622 44.7124 5.50475 44.7173 5.63307L44.7376 5.76629C44.7494 5.79313 46.0229 7.98753 46.0229 7.98753L46.5594 8.90987C46.7145 9.06427 46.8765 9.125 47.0319 9.104C47.1966 9.08167 47.3392 8.97727 47.4366 8.8092L49.2375 5.67519C49.331 5.51337 49.3485 5.35841 49.2866 5.25045C49.222 5.14054 49.083 5.08059 48.893 5.08139L45.2751 5.08942C45.0812 5.08981 44.9194 5.16191 44.819 5.29317ZM44.9161 5.62542C44.9131 5.54335 44.9339 5.47026 44.977 5.41405C45.0386 5.33313 45.1449 5.28827 45.2755 5.28788L48.894 5.28003C49.0268 5.27965 49.095 5.31765 49.1144 5.35036C49.1197 5.36035 49.1233 5.37447 49.1246 5.39249C49.126 5.43461 49.1114 5.49711 49.066 5.57547L47.2634 8.71007C47.1986 8.82367 47.107 8.8936 47.0056 8.90713C46.9111 8.92007 46.8074 8.87753 46.7139 8.7888C46.7129 8.7802 46.1949 7.8872 46.1949 7.8872L44.9208 5.69361C44.9316 5.72025 44.9161 5.62542 44.9161 5.62542Z" fill="#FEFEFE"/>
<path d="M49.4833 5.76589L47.6814 8.89987C47.6194 9.0076 47.5888 9.1218 47.5932 9.2292L47.63 9.39653C47.6902 9.54207 47.8229 9.651 48.0047 9.70407C48.0324 9.7078 51.6387 9.69973 51.6387 9.69973C51.8476 9.6418 51.9799 9.53227 52.0395 9.38727L52.076 9.181C52.072 9.08307 52.0414 8.98587 51.9858 8.89047L50.1703 5.76411C50.0748 5.59993 49.9527 5.51042 49.8262 5.51042C49.6996 5.51021 49.5778 5.60073 49.4833 5.76589ZM48.032 9.50893C47.9374 9.4774 47.8508 9.40867 47.8139 9.32007L47.7922 9.22113C47.7898 9.1512 47.81 9.0742 47.8541 8.9988L49.656 5.86443C49.7219 5.74941 49.7894 5.70867 49.8266 5.70867C49.8644 5.70867 49.9313 5.74883 49.9982 5.86363L51.8142 8.99C51.8524 9.0558 51.8744 9.125 51.8768 9.18847L51.856 9.31187C51.8191 9.39947 51.7324 9.4682 51.6103 9.50467C51.6095 9.50133 48.032 9.50893 48.032 9.50893Z" fill="#FEFEFE"/>
<path d="M50.3331 5.21903C50.2696 5.32914 50.2881 5.4796 50.3831 5.64377L52.1986 8.77073C52.296 8.9382 52.4399 9.04207 52.6037 9.0634C52.7597 9.0832 52.9207 9.02187 53.0584 8.8906C53.0752 8.86807 54.8719 5.74349 54.8719 5.74349C54.8811 5.71723 54.9029 5.53563 54.9029 5.53563C54.8985 5.42572 54.8631 5.32405 54.7997 5.24255C54.6993 5.11129 54.5366 5.03998 54.3427 5.04037L50.7247 5.04801C50.5353 5.04938 50.3957 5.10953 50.3331 5.21903ZM50.5547 5.54386C50.5129 5.47215 50.4971 5.41455 50.4951 5.37341C50.4941 5.34873 50.4985 5.33032 50.5047 5.31778C50.5237 5.28564 50.5929 5.24763 50.7247 5.24706L54.3427 5.23883C54.474 5.23883 54.5805 5.28329 54.6431 5.36342C54.6809 5.41338 54.7013 5.47372 54.7046 5.54386L54.6885 5.6712C54.6832 5.67218 52.9035 8.76913 52.9035 8.76913C52.8278 8.83593 52.7241 8.87867 52.6288 8.86653C52.5274 8.8538 52.4359 8.78407 52.3705 8.6712L50.5547 5.54386Z" fill="#FEFEFE"/>
</g>
</g>
<mask id="mask2_512_10894" style="mask-type:luminance" maskUnits="userSpaceOnUse" x="89" y="0" width="47" height="10">
<path d="M135.357 0H89.4106V10H135.357V0Z" fill="white"/>
</mask>
<g mask="url(#mask2_512_10894)">
<path d="M118.486 7.48407L119.34 5.02869L120.186 7.48407H118.486ZM118.828 4.12565L116.857 9.56213H117.767L118.226 8.24347H120.443L120.902 9.56213H121.828L119.857 4.12565H118.828Z" fill="#FEFEFE"/>
<path d="M126.102 6.40372H127.32V9.562H128.112V6.40372H129.331V5.7487H126.102V6.40372Z" fill="#FEFEFE"/>
<path d="M131.586 8.93053C130.929 8.93053 130.399 8.36267 130.399 7.6588C130.399 6.95493 130.929 6.37942 131.586 6.37942C132.243 6.37942 132.773 6.954 132.773 7.6588C132.773 8.36367 132.243 8.93053 131.586 8.93053ZM131.586 5.66024C131.196 5.66439 130.817 5.78479 130.495 6.00633C130.173 6.22786 129.923 6.54059 129.777 6.9052C129.631 7.26987 129.594 7.67007 129.673 8.05547C129.751 8.44093 129.94 8.7944 130.217 9.0714C130.493 9.34847 130.845 9.53667 131.227 9.61233C131.609 9.68807 132.005 9.64787 132.364 9.49693C132.724 9.34593 133.031 9.09087 133.248 8.7638C133.464 8.43673 133.58 8.05227 133.581 7.6588C133.581 7.39487 133.529 7.13353 133.429 6.88987C133.329 6.64617 133.181 6.42502 132.996 6.23919C132.81 6.05335 132.59 5.90651 132.348 5.80713C132.106 5.70775 131.847 5.65782 131.586 5.66024Z" fill="#FEFEFE"/>
<path d="M124.304 8.9462H123.212V7.91573H124.304C124.684 7.91573 124.922 8.10727 124.922 8.4348C124.922 8.76233 124.685 8.9462 124.304 8.9462ZM123.212 6.36055H124.226C124.621 6.36055 124.836 6.54346 124.836 6.8394C124.836 7.13527 124.621 7.3278 124.226 7.3278H123.212V6.36055ZM125.128 7.5758C125.28 7.49567 125.406 7.37487 125.494 7.22673C125.582 7.07853 125.628 6.90873 125.627 6.73593C125.627 6.15179 125.254 5.74479 124.281 5.74479H122.421V9.56193H124.328C125.254 9.56193 125.729 9.06687 125.729 8.45107C125.735 8.25993 125.679 8.072 125.571 7.91507C125.463 7.75813 125.308 7.64053 125.128 7.5796" fill="#FEFEFE"/>
<path d="M93.1407 6.15495C92.7547 6.15477 92.3767 6.27037 92.0554 6.48713C91.734 6.70387 91.4834 7.01207 91.3354 7.37267C91.1874 7.73333 91.1487 8.1302 91.224 8.51313C91.2994 8.896 91.4854 9.2478 91.758 9.52393C92.0314 9.80007 92.3794 9.98813 92.7587 10.0643C93.1374 10.1406 93.5307 10.1015 93.8874 9.9522C94.2447 9.80287 94.5494 9.54987 94.764 9.22527C94.9787 8.90067 95.0934 8.51907 95.0934 8.12867C95.0934 7.60533 94.888 7.10347 94.522 6.7334C94.1554 6.36326 93.6587 6.15521 93.1407 6.15495Z" fill="#626970"/>
<path d="M96.0707 7.21C96.3854 7.2102 96.6921 7.1162 96.9541 6.94C97.2154 6.76373 97.4187 6.51313 97.5394 6.21987C97.6594 5.9266 97.6914 5.60387 97.6301 5.29247C97.5687 4.98107 97.4174 4.695 97.1954 4.47042C96.9734 4.24587 96.6901 4.09292 96.3821 4.03091C96.0741 3.96891 95.7547 4.00063 95.4641 4.12208C95.1741 4.24353 94.9254 4.44925 94.7507 4.7132C94.5767 4.97718 94.4834 5.28751 94.4834 5.605C94.4841 6.03027 94.6514 6.43791 94.9487 6.73873C95.2467 7.03953 95.6501 7.209 96.0707 7.21Z" fill="#FEFEFE"/>
<path d="M96.5292 7.46747C96.2958 7.46747 96.0678 7.5374 95.8732 7.66854C95.6792 7.79967 95.5278 7.986 95.4385 8.20407C95.3492 8.42207 95.3258 8.662 95.3712 8.89347C95.4165 9.12494 95.5292 9.33754 95.6945 9.5044C95.8592 9.67127 96.0698 9.78493 96.2992 9.83094C96.5278 9.877 96.7658 9.85334 96.9812 9.76307C97.1972 9.67273 97.3818 9.5198 97.5112 9.3236C97.6412 9.12734 97.7105 8.89667 97.7105 8.66067C97.7112 8.50387 97.6805 8.34854 97.6212 8.2036C97.5618 8.05867 97.4752 7.92694 97.3652 7.81607C97.2558 7.7052 97.1252 7.61734 96.9818 7.55754C96.8385 7.49767 96.6845 7.46707 96.5292 7.46747Z" fill="#F68E57"/>
<path d="M93.5145 5.89725C93.6585 5.89725 93.7999 5.85394 93.9205 5.77281C94.0405 5.69167 94.1339 5.57636 94.1892 5.44145C94.2445 5.30654 94.2592 5.15809 94.2312 5.01487C94.2032 4.87165 94.1332 4.74009 94.0312 4.63683C93.9285 4.53356 93.7985 4.46325 93.6572 4.43476C93.5152 4.40627 93.3679 4.42089 93.2345 4.47678C93.1012 4.53265 92.9872 4.62729 92.9065 4.74871C92.8265 4.87014 92.7832 5.01287 92.7832 5.15891C92.7832 5.35471 92.8605 5.54251 92.9979 5.68098C93.1345 5.81945 93.3205 5.89725 93.5145 5.89725Z" fill="#FEFEFE"/>
<path d="M113.041 8.61747C112.854 8.61747 112.67 8.56127 112.514 8.45607C112.358 8.3508 112.237 8.20127 112.165 8.02627C112.094 7.85127 112.074 7.65873 112.111 7.473C112.148 7.2872 112.238 7.1166 112.371 6.98267C112.503 6.84873 112.672 6.75753 112.856 6.7206C113.04 6.6836 113.23 6.7026 113.404 6.77507C113.577 6.84753 113.725 6.97027 113.829 7.1278C113.933 7.28527 113.989 7.4704 113.989 7.6598C113.989 7.78553 113.964 7.91007 113.916 8.02627C113.869 8.14247 113.799 8.248 113.711 8.33693C113.623 8.42587 113.518 8.4964 113.404 8.54453C113.289 8.59267 113.165 8.61747 113.041 8.61747ZM113.041 5.68229C112.654 5.68229 112.277 5.79805 111.956 6.01491C111.634 6.23178 111.384 6.54003 111.236 6.90067C111.088 7.26133 111.05 7.65813 111.125 8.041C111.2 8.42387 111.386 8.77553 111.66 9.0516C111.933 9.3276 112.281 9.5156 112.66 9.59173C113.039 9.66787 113.432 9.6288 113.788 9.4794C114.146 9.33007 114.45 9.07707 114.665 8.75247C114.88 8.42793 114.994 8.04633 114.994 7.656C114.994 7.3968 114.944 7.14013 114.846 6.90067C114.748 6.66123 114.604 6.44365 114.422 6.26036C114.241 6.07709 114.026 5.93171 113.788 5.83253C113.552 5.73333 113.298 5.68229 113.041 5.68229Z" fill="#FEFEFE"/>
<path d="M104.776 8.1626L103.886 5.7513H102.832L104.268 9.5608H105.312L106.722 5.7513H105.668L104.776 8.1626Z" fill="#FEFEFE"/>
<path d="M110.034 4.73959H109.032V5.75178H108.446V6.66154H109.032V8.2828C109.032 9.2012 109.532 9.59574 110.238 9.59574C110.476 9.5994 110.714 9.55307 110.934 9.45973V8.51453C110.814 8.55893 110.688 8.58227 110.56 8.58353C110.254 8.58353 110.034 8.46287 110.034 8.05107V6.66154H110.934V5.75178H110.034V4.73959Z" fill="#FEFEFE"/>
<path d="M107.545 4.00113C107.355 4.00801 107.177 4.08877 107.045 4.22639C106.914 4.36401 106.84 4.54776 106.84 4.73899C106.84 4.93021 106.914 5.11396 107.045 5.25159C107.177 5.38921 107.355 5.46996 107.545 5.47685C107.643 5.48041 107.741 5.46399 107.833 5.42849C107.924 5.39303 108.008 5.33925 108.079 5.27039C108.149 5.20152 108.205 5.11896 108.244 5.02767C108.282 4.93636 108.302 4.83819 108.302 4.73899C108.302 4.63979 108.282 4.54161 108.244 4.45032C108.205 4.35901 108.149 4.27645 108.079 4.20759C108.008 4.13872 107.924 4.08494 107.833 4.04947C107.741 4.014 107.643 3.99756 107.545 4.00113Z" fill="#FEFEFE"/>
<path d="M108.046 5.7513H107.044V9.56173H108.046V5.7513Z" fill="#FEFEFE"/>
<path d="M100.133 7.43387L100.855 5.52629L101.571 7.43387H100.133ZM100.287 4.13867L98.228 9.56173H99.3327L99.7587 8.42987H101.939L102.364 9.56173H103.459L101.413 4.13867H100.287Z" fill="#FEFEFE"/>
</g>
</g>
<defs>
<clipPath id="clip0_512_10894">
<rect width="134" height="40" fill="white"/>
</clipPath>
</defs>
</svg>
